<?xml version="1.0" encoding="UTF-8"?>
<svg id="Capa_1" xmlns="http://www.w3.org/2000/svg" version="1.1" viewBox="0 0 1166.3 280.5">
  <!-- Generator: Adobe Illustrator 30.2.1, SVG Export Plug-In . SVG Version: 2.1.1 Build 1)  -->
  <defs>
    <style>
      .st0 {
        isolation: isolate;
      }
    </style>
  </defs>
  <g class="st0">
    <path d="M91.4,172.5c-5.5,10.4-14.6,16-25.8,16-19.9,0-33.6-17.7-33.6-41.2s15.9-43.1,38.6-43.1,14.3,1.8,20.7,5v-14.7c0-8.4-1.8-13.9-4.9-15.4v-.8l27.6-4.9v97.2c0,8.4,1.8,13.9,4.9,15.4v.8h-27.6v-14.4ZM91.4,131.6c-2.9-14.3-11.3-24.2-20.7-24.2s-15.2,10.4-15.2,29.5,8.8,42.1,20.9,42.1,12.2-5.3,15.1-14.4v-33.1Z"/>
    <path d="M180.4,171.2c-4.9,10.5-14.7,17.3-26.7,17.3s-24.2-8.6-24.2-19.3,19.8-28.5,50.9-36v-1.5c0-15.9-5-24.3-13.6-24.3s-12.6,6-14.3,15.6c-1,6.2-3.2,8.9-7.8,8.9s-10-4.2-10-9.6c0-9.9,15.2-18.2,33.2-18.2s35.2,11.5,35.2,27.6v38.9c0,8.4,1.8,13.9,4.9,15.4v.8h-27.6v-15.7ZM153.4,163.7c0,9.2,4.7,15.9,11.7,15.9s15.4-10.5,15.4-23.8v-19.3c-17.7,4.7-27.1,14.1-27.1,27.2Z"/>
    <path d="M220.9,186.1c3.1-1.5,4.9-7,4.9-15.4v-43.8c0-8.4-1.8-13.9-4.9-15.4v-.8l27.6-4.9v64.8c0,8.4,1.8,13.9,4.9,15.4v.8h-32.4v-.8ZM237.2,73.4c7.1,0,12.5,5.3,12.5,12.5s-5.3,12.5-12.5,12.5-12.5-5.3-12.5-12.5,5.3-12.5,12.5-12.5Z"/>
    <path d="M266.3,186.1c3.1-1.5,4.9-7,4.9-15.4v-76.2c0-8.4-1.8-13.9-4.9-15.4v-.8l27.6-4.9v97.2c0,8.4,1.8,13.9,4.9,15.4v.8h-32.4v-.8Z"/>
    <path d="M320.1,120c-3.9-7.9-6.6-11.3-10.7-13.3v-.8h37.3v.8c-4.1,2.8-4.2,6.3-.6,15.1l18.6,39.9,18.6-40c3.6-8.4,2.8-12-2.4-14.9v-.8h17.3v.8c-4.4,2.3-6.8,5.2-10.5,13l-36.3,78c-9.9,21.1-18.5,29.8-29,29.8s-14.7-5.3-14.7-12.2,3.9-9.1,8.9-9.1c8.3,0,6.5,10.2,13.8,10.2s11.7-6.3,17.5-18.8l4.2-9.1-31.9-68.6Z"/>
    <path d="M407.2,226.6c3.1-1.5,4.9-7,4.9-15.4v-84.3c0-8.4-1.8-13.9-4.9-15.4v-.8l27.6-4.9v14.4c5.5-10.4,14.6-16,25.8-16,19.9,0,33.6,17.7,33.6,41.2s-15.9,43.1-38.6,43.1-14.3-1.8-20.7-5v27.7c0,8.3,2.3,13.8,6.5,15.4v.8h-34v-.8ZM434.7,161.1c2.9,14.3,11.3,24.2,20.7,24.2s15.2-10.4,15.2-29.5-8.8-42.1-20.9-42.1-12.2,5.3-15.1,14.4v33.1Z"/>
    <path d="M532.1,128.6v42.1c0,8.4,1.8,13.9,4.9,15.4v.8h-32.4v-.8c3.1-1.5,4.9-7,4.9-15.4v-43.8c0-8.4-1.8-13.9-4.9-15.4v-.8l27.6-4.9v14.9c5.5-10.4,13.8-16.5,22.5-16.5s15.6,6.2,15.6,14.7-3.9,11.3-9.2,11.3-6.6-2.8-8.1-9.4c-1.5-6-3.6-8.8-6.8-8.8-4.9,0-9.7,6-13.9,16.4Z"/>
    <path d="M620.5,104.2c24.6,0,42.1,17.5,42.1,42.1s-17.5,42.1-42.1,42.1-42.1-17.8-42.1-42.1,17.8-42.1,42.1-42.1ZM625.3,185c8.8,0,13.6-10.5,13.6-28.9,0-26.7-10.4-48.3-23-48.3s-13.9,10.5-13.9,28.7c0,26.6,10.7,48.5,23.3,48.5Z"/>
    <path d="M673.1,186.1c3.1-1.5,4.9-7,4.9-15.4v-43.8c0-8.4-1.8-13.9-4.9-15.4v-.8l27.6-4.9v16.5c7.6-11.2,19-18.2,30.3-18.2s18.6,7,20.9,19.1c7.5-11.8,19.3-19.1,31-19.1s21.6,10.2,21.6,27.6v38.9c0,8.4,1.8,13.9,4.9,15.4v.8h-32.4v-.8c3.1-1.5,4.9-7,4.9-15.4v-38.9c0-11-4.2-17-11.7-17s-12.8,4.9-17.7,13.9v.8l.2,1.5v39.7c0,8.4,1.8,13.9,4.9,15.4v.8h-32.4v-.8c3.1-1.5,4.9-7,4.9-15.4v-38.9c0-11-4.2-17-11.7-17s-12.6,4.7-17.5,13.8v42.1c0,8.4,1.8,13.9,4.9,15.4v.8h-32.4v-.8Z"/>
    <path d="M822.3,226.6c3.1-1.5,4.9-7,4.9-15.4v-84.3c0-8.4-1.8-13.9-4.9-15.4v-.8l27.6-4.9v14.4c5.5-10.4,14.6-16,25.8-16,19.9,0,33.6,17.7,33.6,41.2s-15.9,43.1-38.6,43.1-14.3-1.8-20.7-5v27.7c0,8.3,2.3,13.8,6.5,15.4v.8h-34v-.8ZM849.8,161.1c2.9,14.3,11.3,24.2,20.7,24.2s15.2-10.4,15.2-29.5-8.8-42.1-20.9-42.1-12.2,5.3-15.1,14.4v33.1Z"/>
    <path d="M944.2,188.5c-12,0-19.6-8.6-19.6-22.5v-56.9h-8.1v-3.2c13,0,21.7-7.3,27.6-22.7h3.2v22.7h16.2v3.2h-16.2v56.9c0,7.3,2.8,11.7,7.5,11.7s7.1-2.8,8.9-7.3l1.6.5c-2.9,11.2-10.5,17.7-21.1,17.7Z"/>
  </g>
  <g class="st0">
    <path d="M987.7,160.3c7.1,0,12.5,5.3,12.5,12.5s-5.3,12.5-12.5,12.5-12.5-5.3-12.5-12.5,5.3-12.5,12.5-12.5Z"/>
    <path d="M1011.5,184.5c3.1-1.5,4.9-7,4.9-15.4v-43.8c0-8.4-1.8-13.9-4.9-15.4v-.8l27.6-4.9v64.8c0,8.4,1.8,13.9,4.9,15.4v.8h-32.4v-.8ZM1027.7,71.8c7.1,0,12.5,5.3,12.5,12.5s-5.3,12.5-12.5,12.5-12.5-5.3-12.5-12.5,5.3-12.5,12.5-12.5Z"/>
    <path d="M1096.6,102.6c24.6,0,42.1,17.5,42.1,42.1s-17.5,42.1-42.1,42.1-42.1-17.8-42.1-42.1,17.8-42.1,42.1-42.1ZM1101.4,183.3c8.8,0,13.6-10.5,13.6-28.9,0-26.7-10.4-48.3-23-48.3s-13.9,10.5-13.9,28.7c0,26.6,10.7,48.5,23.3,48.5Z"/>
  </g>
</svg>