<?xml version="1.0" encoding="UTF-8"?>
<svg id="Capa_1" xmlns="http://www.w3.org/2000/svg" version="1.1" viewBox="0 0 1166.3 280.5">
  <!-- Generator: Adobe Illustrator 30.2.1, SVG Export Plug-In . SVG Version: 2.1.1 Build 1)  -->
  <defs>
    <style>
      .st0 {
        fill: #936200;
        opacity: .4;
      }

      .st0, .st1 {
        font-family: Cornella-Regular, Cornella;
        font-size: 177.7px;
      }

      .st2 {
        letter-spacing: 0em;
      }

      .st3 {
        letter-spacing: 0em;
      }

      .st4 {
        letter-spacing: 0em;
      }

      .st5 {
        fill: #353535;
      }
    </style>
  </defs>
  <g>
    <path class="st5" d="M503,192.8c-.2.3-.4.5-.7.5s-.5-.2-.9-.5c-.4-.3-.9-.7-1.5-1.1-.6-.4-1.4-.8-2.4-1.1-1-.3-2.1-.5-3.5-.5s-2.6.2-3.7.6c-1.1.4-2,1-2.7,1.6-.7.7-1.3,1.5-1.6,2.4-.4.9-.6,1.9-.6,2.9s.3,2.4.8,3.3c.6.9,1.3,1.6,2.2,2.2.9.6,1.9,1.1,3.1,1.5,1.2.4,2.4.8,3.6,1.2,1.2.4,2.4.8,3.6,1.3,1.2.5,2.2,1.1,3.1,1.8.9.7,1.6,1.6,2.2,2.7.6,1.1.8,2.4.8,4s-.3,3.2-.8,4.6-1.4,2.7-2.4,3.7c-1.1,1.1-2.4,1.9-3.9,2.5s-3.3.9-5.3.9-4.8-.5-6.6-1.4-3.5-2.1-4.8-3.7l.8-1.2c.2-.3.5-.4.8-.4s.4.1.6.3c.3.2.6.5.9.8.4.3.8.7,1.3,1,.5.4,1.1.7,1.8,1,.7.3,1.5.6,2.3.8.9.2,1.9.3,3,.3s2.9-.2,4.1-.7c1.2-.5,2.2-1.1,3.1-1.9.8-.8,1.5-1.8,1.9-2.9.4-1.1.7-2.3.7-3.5s-.3-2.5-.8-3.4c-.6-.9-1.3-1.6-2.2-2.2-.9-.6-2-1.1-3.1-1.5-1.2-.4-2.4-.8-3.6-1.2-1.2-.4-2.4-.8-3.6-1.3-1.2-.5-2.2-1.1-3.1-1.8-.9-.7-1.6-1.7-2.2-2.8-.6-1.1-.8-2.5-.8-4.2s.2-2.5.7-3.8c.5-1.2,1.2-2.3,2.2-3.2.9-.9,2.1-1.7,3.5-2.2,1.4-.6,3-.8,4.8-.8s3.8.3,5.4,1c1.6.6,3.1,1.6,4.4,2.9l-.7,1.3Z"/>
    <path class="st5" d="M514.3,204.2c1.3-1.5,2.7-2.8,4.3-3.7,1.6-.9,3.4-1.4,5.4-1.4s2.8.2,4,.7,2.1,1.2,2.8,2.1,1.3,2,1.7,3.2c.4,1.3.6,2.7.6,4.3v17.4h-2.6v-17.4c0-2.6-.6-4.6-1.8-6-1.2-1.5-2.9-2.2-5.3-2.2s-3.4.5-5,1.4-2.9,2.2-4.1,3.8v20.5h-2.6v-39.9h2.6v17.2Z"/>
    <path class="st5" d="M552.6,199.2c2,0,3.7.3,5.2,1,1.5.7,2.8,1.6,3.9,2.8s1.9,2.7,2.4,4.4c.6,1.7.8,3.7.8,5.8s-.3,4.1-.8,5.8c-.6,1.7-1.4,3.2-2.4,4.4-1.1,1.2-2.4,2.2-3.9,2.8s-3.3,1-5.2,1-3.7-.3-5.2-1c-1.5-.7-2.8-1.6-3.9-2.8-1.1-1.2-1.9-2.7-2.4-4.4s-.8-3.6-.8-5.8.3-4.1.8-5.8c.6-1.7,1.4-3.2,2.4-4.4s2.4-2.2,3.9-2.8c1.5-.7,3.3-1,5.2-1ZM552.6,225.2c1.6,0,3-.3,4.3-.8,1.2-.6,2.2-1.4,3-2.4.8-1,1.4-2.3,1.8-3.8.4-1.5.6-3.1.6-4.9s-.2-3.5-.6-4.9c-.4-1.5-1-2.7-1.8-3.8-.8-1-1.8-1.9-3-2.4-1.2-.6-2.6-.8-4.3-.8s-3,.3-4.3.8c-1.2.6-2.2,1.4-3,2.4-.8,1.1-1.4,2.3-1.8,3.8-.4,1.5-.6,3.1-.6,4.9s.2,3.5.6,4.9c.4,1.5,1,2.7,1.8,3.8.8,1,1.8,1.8,3,2.4,1.2.6,2.6.8,4.3.8Z"/>
    <path class="st5" d="M574.8,206.2c.4-1.1.9-2.1,1.4-3,.5-.9,1.2-1.6,1.9-2.2.7-.6,1.5-1.1,2.4-1.4.9-.3,1.8-.5,2.9-.5s1.1,0,1.7.2c.5.1,1,.3,1.5.5l-.2,1.8c0,.3-.3.4-.5.4s-.6,0-1-.2c-.4-.1-1-.2-1.8-.2-1.1,0-2,.2-2.8.5-.8.3-1.5.8-2.2,1.4-.6.6-1.2,1.4-1.7,2.4-.5.9-.9,2-1.3,3.2v17.6h-2.6v-27.3h1.4c.3,0,.5,0,.7.2s.2.3.2.7l.2,5.7Z"/>
    <path class="st5" d="M599.2,227.3c-1.8,0-3.3-.5-4.3-1.5-1-1-1.5-2.6-1.5-4.7v-18.6h-3.9c-.2,0-.4,0-.5-.2-.1-.1-.2-.3-.2-.5v-1l4.7-.3.7-9.8c0-.2.1-.3.2-.4.1-.1.3-.2.5-.2h1.2v10.4h8.6v1.9h-8.6v18.5c0,.8,0,1.4.3,1.9.2.5.5,1,.8,1.3s.7.6,1.2.8c.5.2.9.2,1.5.2s1.2,0,1.7-.3c.5-.2.9-.4,1.2-.6.3-.2.6-.4.8-.6.2-.2.4-.3.5-.3s.3,0,.4.3l.7,1.2c-.7.8-1.6,1.4-2.6,1.8-1.1.5-2.2.7-3.3.7Z"/>
    <path class="st5" d="M654.3,226.8h-2.2c-.3,0-.5,0-.6-.2-.2-.1-.3-.3-.4-.5l-4.5-11.3h-19l-4.5,11.3c0,.2-.2.4-.4.5-.2.1-.4.2-.7.2h-2.1l15.9-38.8h2.8l15.9,38.8ZM645.7,212.8l-7.9-19.6c-.3-.6-.5-1.4-.8-2.3-.1.4-.2.9-.4,1.2s-.3.8-.4,1.1l-7.9,19.6h17.3Z"/>
    <path class="st5" d="M663.5,226.8h-2.8v-38.8h2.8v38.8Z"/>
    <path class="st5" d="M691.1,204.4c1.3-1.6,2.7-2.8,4.4-3.8,1.7-.9,3.5-1.4,5.5-1.4s2.8.2,4,.7,2.1,1.2,2.8,2.1c.7.9,1.3,2,1.7,3.2.4,1.3.6,2.7.6,4.3v17.4h-2.6v-17.4c0-2.6-.6-4.6-1.8-6-1.2-1.5-3-2.2-5.3-2.2s-3.4.5-5,1.4c-1.5.9-2.9,2.2-4.1,3.8v20.5h-2.6v-27.3h1.5c.5,0,.7.2.8.7l.2,4.1Z"/>
    <path class="st5" d="M719.7,212.1v.5c0,2,.2,3.8.7,5.4.5,1.6,1.2,2.9,2,3.9.9,1,1.9,1.8,3.2,2.4,1.2.5,2.6.8,4.2.8s2.6-.2,3.6-.5c1-.3,1.8-.6,2.5-1,.7-.4,1.2-.7,1.6-1,.4-.3.7-.5.9-.5s.4,0,.5.3l.7.9c-.4.5-1,1.1-1.7,1.5-.7.5-1.5.9-2.4,1.2s-1.8.6-2.8.8c-1,.2-2,.3-3.1.3-1.9,0-3.6-.3-5.1-1-1.5-.6-2.8-1.6-3.9-2.8-1.1-1.2-1.9-2.8-2.5-4.6s-.9-3.9-.9-6.2.3-3.8.8-5.4c.6-1.7,1.4-3.1,2.4-4.3,1-1.2,2.3-2.1,3.9-2.8s3.3-1,5.2-1,3,.3,4.3.8c1.3.5,2.5,1.3,3.4,2.3s1.7,2.3,2.3,3.7c.6,1.5.8,3.2.8,5.1s0,.7-.2.8c-.1.1-.3.2-.5.2h-19.8ZM737.9,210.5c0-1.5-.2-2.8-.6-3.9-.4-1.2-1-2.1-1.7-2.9s-1.6-1.4-2.7-1.8c-1-.4-2.2-.6-3.4-.6s-2.7.2-3.8.7c-1.1.4-2.1,1.1-2.9,1.9-.8.8-1.5,1.8-2,3s-.8,2.4-1,3.9h18.1Z"/>
    <path class="st5" d="M783.2,199.6l-9.1,27.3h-1.9c-.3,0-.5-.2-.6-.6l-7.5-22.1c0-.3-.2-.5-.2-.8,0-.3-.1-.5-.2-.8,0,.5-.2,1.1-.4,1.6l-7.6,22.1c-.1.4-.3.6-.7.6h-1.9l-9.1-27.3h2c.3,0,.5,0,.6.2.2.1.3.3.3.5l6.9,21.5c.1.4.2.8.3,1.2s.2.8.2,1.2c.1-.4.2-.8.3-1.2s.2-.8.4-1.2l7.3-21.7c.1-.4.4-.6.8-.6h1.1c.4,0,.7.2.8.6l7.2,21.7c.1.4.2.8.4,1.2.1.4.2.8.3,1.2,0-.4.2-.8.2-1.2,0-.4.2-.8.3-1.2l6.9-21.5c0-.2.2-.4.4-.5.2-.1.4-.2.6-.2h1.9Z"/>
    <path class="st5" d="M804,203c-.1.3-.4.4-.6.4s-.5-.1-.8-.3-.7-.5-1.2-.8-1.2-.5-1.9-.8c-.8-.2-1.7-.3-2.8-.3s-1.9.1-2.7.4-1.5.7-2.1,1.1c-.6.5-1,1-1.3,1.7-.3.6-.5,1.3-.5,2s.2,1.6.7,2.1c.4.6,1,1,1.7,1.5.7.4,1.5.7,2.4,1,.9.3,1.8.6,2.8.9s1.9.6,2.8,1c.9.4,1.7.8,2.4,1.3.7.5,1.3,1.2,1.7,1.9.4.8.7,1.7.7,2.8s-.2,2.3-.6,3.3c-.4,1-1,1.9-1.8,2.7-.8.7-1.8,1.3-3,1.8-1.2.4-2.5.7-4.1.7s-3.6-.3-5-.9c-1.4-.6-2.6-1.4-3.7-2.4l.6-.9c0-.1.2-.3.3-.3.1,0,.3-.1.5-.1s.5.1.9.4.8.6,1.4.9c.6.3,1.3.7,2.1.9.8.3,1.9.4,3.1.4s2.2-.2,3-.5c.9-.3,1.6-.8,2.2-1.3.6-.5,1-1.2,1.3-1.9.3-.7.5-1.5.5-2.3s-.2-1.7-.7-2.3-1-1.1-1.7-1.5c-.7-.4-1.5-.8-2.4-1.1s-1.8-.6-2.8-.9c-1-.3-1.9-.6-2.8-1-.9-.3-1.7-.8-2.4-1.3-.7-.5-1.3-1.2-1.7-1.9-.4-.8-.7-1.7-.7-2.8s.2-1.9.6-2.8c.4-.9,1-1.7,1.8-2.4.8-.7,1.7-1.2,2.8-1.6s2.4-.6,3.8-.6,3.1.2,4.4.7c1.3.5,2.5,1.2,3.5,2.2l-.5.9Z"/>
    <path class="st5" d="M899,188.1c2.2,0,4.1.2,5.8.7,1.6.4,3,1.1,4,1.9,1.1.8,1.8,1.9,2.4,3.1.5,1.2.8,2.6.8,4.2s-.2,2-.5,3c-.4,1-.9,1.8-1.5,2.6-.7.8-1.5,1.5-2.5,2.1-1,.6-2.1,1-3.4,1.4,3,.4,5.4,1.4,7,3,1.6,1.6,2.5,3.7,2.5,6.2s-.3,3.1-.9,4.4c-.6,1.3-1.4,2.4-2.5,3.3-1.1.9-2.5,1.6-4.1,2.1-1.6.5-3.5.7-5.5.7h-12.6v-38.8h11.2ZM890.7,190.3v15.9h8.4c1.8,0,3.3-.2,4.6-.7,1.3-.5,2.3-1.1,3.1-1.8.8-.7,1.4-1.6,1.8-2.5.4-.9.6-1.9.6-2.9,0-2.6-.8-4.6-2.5-5.9-1.7-1.3-4.2-2-7.7-2h-8.3ZM900.4,224.6c3.4,0,6-.7,7.7-2.2,1.7-1.5,2.6-3.5,2.6-6.2s-.2-2.3-.7-3.3c-.5-1-1.1-1.8-2-2.5-.9-.7-2-1.2-3.2-1.6-1.3-.4-2.7-.5-4.4-.5h-9.8v16.3h9.7Z"/>
    <path class="st5" d="M924.6,190.2c0,.3,0,.6-.2.9s-.3.5-.5.8c-.2.2-.5.4-.8.5-.3.1-.6.2-.9.2s-.6,0-.9-.2-.5-.3-.8-.5c-.2-.2-.4-.5-.5-.8s-.2-.6-.2-.9,0-.6.2-.9c.1-.3.3-.6.5-.8.2-.2.5-.4.8-.5s.6-.2.9-.2.6,0,.9.2c.3.1.5.3.8.5s.4.5.5.8c.1.3.2.6.2.9ZM923.5,199.6v27.3h-2.6v-27.3h2.6Z"/>
    <path class="st5" d="M954.7,200.8v.9c0,.4-.3.6-.8.7l-4.2.3c.5.7.9,1.5,1.2,2.3.3.9.4,1.8.4,2.8s-.2,2.5-.7,3.6-1.1,2-2,2.7c-.8.8-1.9,1.3-3.1,1.8s-2.5.6-4,.6-3-.2-4.2-.7c-.8.4-1.4,1-1.8,1.5s-.7,1.2-.7,1.8.3,1.4.8,1.8c.6.4,1.3.7,2.2.9.9.2,1.9.3,3.1.4,1.2,0,2.3.1,3.5.2,1.2,0,2.4.2,3.5.3s2.2.5,3.1.9c.9.4,1.6,1,2.2,1.7.6.7.8,1.7.8,2.9s-.3,2.2-.8,3.3c-.6,1-1.4,2-2.5,2.8s-2.4,1.4-3.9,1.9-3.2.7-5.1.7-3.6-.2-5-.6c-1.4-.4-2.7-.9-3.6-1.6-1-.7-1.7-1.4-2.2-2.3-.5-.9-.7-1.8-.7-2.8,0-1.4.5-2.7,1.4-3.7.9-1,2.2-1.8,3.9-2.4-.9-.3-1.6-.8-2.2-1.4-.6-.6-.8-1.4-.8-2.4s0-.8.2-1.2c.1-.4.4-.8.7-1.2.3-.4.6-.8,1.1-1.2.4-.4.9-.7,1.4-1-1.3-.7-2.3-1.7-3-3s-1.1-2.7-1.1-4.4.2-2.5.7-3.6c.5-1.1,1.1-2,2-2.8.9-.8,1.9-1.4,3.1-1.8s2.5-.6,4-.6,2.3.1,3.3.4c1,.3,1.9.7,2.7,1.2h7ZM951.9,228.7c0-.9-.2-1.5-.7-2.1s-1-.9-1.8-1.2c-.7-.3-1.6-.5-2.6-.6-1-.1-2-.2-3.1-.3-1.1,0-2.1-.1-3.2-.2-1.1,0-2.1-.2-3-.3-.7.3-1.3.6-1.9.9-.6.4-1.1.8-1.5,1.2-.4.5-.7,1-1,1.5-.2.5-.4,1.1-.4,1.7s.2,1.5.6,2.2c.4.7,1,1.3,1.8,1.8.8.5,1.8.9,2.9,1.2s2.5.4,4,.4,2.7-.2,3.9-.5,2.2-.7,3.1-1.3c.9-.6,1.6-1.2,2.1-2,.5-.8.8-1.6.8-2.6ZM941.7,214.8c1.2,0,2.2-.2,3.1-.5.9-.3,1.7-.8,2.3-1.4s1.1-1.3,1.4-2.2.5-1.8.5-2.8-.2-2-.5-2.8-.8-1.6-1.5-2.2-1.4-1.1-2.3-1.4c-.9-.3-1.9-.5-3.1-.5s-2.2.2-3.1.5c-.9.3-1.7.8-2.3,1.4-.6.6-1.1,1.3-1.4,2.2-.3.8-.5,1.8-.5,2.8s.2,2,.5,2.8c.3.8.8,1.6,1.4,2.2.6.6,1.4,1.1,2.3,1.4s1.9.5,3.1.5Z"/>
    <path class="st5" d="M979.7,190.2c0,.3,0,.6-.2.9s-.3.5-.5.8c-.2.2-.5.4-.8.5-.3.1-.6.2-.9.2s-.6,0-.9-.2-.5-.3-.8-.5c-.2-.2-.4-.5-.5-.8s-.2-.6-.2-.9,0-.6.2-.9c.1-.3.3-.6.5-.8.2-.2.5-.4.8-.5s.6-.2.9-.2.6,0,.9.2c.3.1.5.3.8.5s.4.5.5.8c.1.3.2.6.2.9ZM978.5,199.6v27.3h-2.6v-27.3h2.6Z"/>
    <path class="st5" d="M1009,187v39.9h-1.4c-.5,0-.7-.2-.8-.7l-.3-4.3c-1.2,1.6-2.6,3-4.2,3.9-1.6,1-3.4,1.5-5.4,1.5-3.4,0-6-1.2-7.8-3.5s-2.8-5.8-2.8-10.4.3-3.8.8-5.6,1.3-3.2,2.3-4.5c1-1.3,2.2-2.3,3.7-3,1.5-.7,3.2-1.1,5.1-1.1s3.4.3,4.8,1c1.4.7,2.5,1.7,3.5,3v-16.2h2.6ZM1006.4,205.5c-1-1.6-2.2-2.7-3.5-3.3-1.3-.6-2.7-1-4.3-1s-3,.3-4.2.9c-1.2.6-2.2,1.4-3,2.5-.8,1.1-1.4,2.3-1.8,3.8-.4,1.5-.6,3.1-.6,4.9,0,4.1.7,7,2.2,8.9,1.5,1.9,3.6,2.9,6.5,2.9s3.4-.5,4.9-1.4,2.8-2.2,3.9-3.9v-14.3Z"/>
    <path class="st5" d="M1018.9,212.1v.5c0,2,.2,3.8.7,5.4.5,1.6,1.2,2.9,2,3.9.9,1,1.9,1.8,3.2,2.4,1.2.5,2.6.8,4.2.8s2.6-.2,3.6-.5c1-.3,1.8-.6,2.5-1,.7-.4,1.2-.7,1.6-1,.4-.3.7-.5.9-.5s.4,0,.5.3l.7.9c-.4.5-1,1.1-1.7,1.5-.7.5-1.5.9-2.4,1.2s-1.8.6-2.8.8c-1,.2-2,.3-3.1.3-1.9,0-3.6-.3-5.1-1-1.5-.6-2.8-1.6-3.9-2.8-1.1-1.2-1.9-2.8-2.5-4.6s-.9-3.9-.9-6.2.3-3.8.8-5.4c.6-1.7,1.4-3.1,2.4-4.3,1-1.2,2.3-2.1,3.9-2.8s3.3-1,5.2-1,3,.3,4.3.8c1.3.5,2.5,1.3,3.4,2.3s1.7,2.3,2.3,3.7c.6,1.5.8,3.2.8,5.1s0,.7-.2.8c-.1.1-.3.2-.5.2h-19.8ZM1037.1,210.5c0-1.5-.2-2.8-.6-3.9-.4-1.2-1-2.1-1.7-2.9s-1.6-1.4-2.7-1.8c-1-.4-2.2-.6-3.4-.6s-2.7.2-3.8.7c-1.1.4-2.1,1.1-2.9,1.9-.8.8-1.5,1.8-2,3s-.8,2.4-1,3.9h18.1Z"/>
    <path class="st5" d="M1045.8,203.5c1.4-1.4,2.9-2.5,4.5-3.2,1.6-.7,3.4-1.1,5.3-1.1s2.7.2,3.8.7c1.1.5,2,1.1,2.7,2,.7.9,1.3,1.9,1.6,3.2.4,1.2.5,2.6.5,4.1v17.8h-1c-.5,0-.9-.3-1-.8l-.4-3.5c-.7.7-1.5,1.4-2.2,2-.7.6-1.5,1.1-2.3,1.5s-1.7.7-2.6.9c-.9.2-2,.3-3.1.3s-1.8-.1-2.7-.4c-.9-.3-1.7-.7-2.3-1.3s-1.2-1.3-1.6-2.2c-.4-.9-.6-1.9-.6-3.2s.3-2.2,1-3.2c.7-1,1.7-1.8,3.1-2.6s3.2-1.3,5.4-1.8c2.2-.4,4.8-.7,7.9-.8v-2.8c0-2.5-.5-4.5-1.6-5.8-1.1-1.4-2.7-2-4.8-2s-2.4.2-3.4.5-1.7.8-2.3,1.2c-.6.4-1.2.8-1.6,1.2-.4.4-.7.5-1,.5s-.4,0-.5-.1c-.1,0-.2-.2-.3-.4l-.5-.8ZM1061.8,213.7c-2.6,0-4.8.3-6.7.6s-3.4.8-4.6,1.3-2.1,1.2-2.7,2c-.6.8-.9,1.6-.9,2.6s.2,1.7.5,2.4c.3.7.7,1.2,1.2,1.6.5.4,1.1.7,1.7.9s1.3.3,2.1.3c1.1,0,2-.1,2.9-.3s1.7-.5,2.5-1c.8-.4,1.5-.9,2.1-1.5.7-.6,1.3-1.2,1.9-1.8v-7.1Z"/>
    <path class="st5" d="M1088.1,203c-.1.3-.4.4-.6.4s-.5-.1-.8-.3-.7-.5-1.2-.8-1.2-.5-1.9-.8c-.8-.2-1.7-.3-2.8-.3s-1.9.1-2.7.4-1.5.7-2.1,1.1c-.6.5-1,1-1.3,1.7-.3.6-.5,1.3-.5,2s.2,1.6.7,2.1c.4.6,1,1,1.7,1.5.7.4,1.5.7,2.4,1,.9.3,1.8.6,2.8.9s1.9.6,2.8,1c.9.4,1.7.8,2.4,1.3.7.5,1.3,1.2,1.7,1.9.4.8.7,1.7.7,2.8s-.2,2.3-.6,3.3c-.4,1-1,1.9-1.8,2.7-.8.7-1.8,1.3-3,1.8-1.2.4-2.5.7-4.1.7s-3.6-.3-5-.9c-1.4-.6-2.6-1.4-3.7-2.4l.6-.9c0-.1.2-.3.3-.3.1,0,.3-.1.5-.1s.5.1.9.4.8.6,1.4.9c.6.3,1.3.7,2.1.9.8.3,1.9.4,3.1.4s2.2-.2,3-.5c.9-.3,1.6-.8,2.2-1.3.6-.5,1-1.2,1.3-1.9.3-.7.5-1.5.5-2.3s-.2-1.7-.7-2.3-1-1.1-1.7-1.5c-.7-.4-1.5-.8-2.4-1.1s-1.8-.6-2.8-.9c-1-.3-1.9-.6-2.8-1-.9-.3-1.7-.8-2.4-1.3-.7-.5-1.3-1.2-1.7-1.9-.4-.8-.7-1.7-.7-2.8s.2-1.9.6-2.8c.4-.9,1-1.7,1.8-2.4.8-.7,1.7-1.2,2.8-1.6s2.4-.6,3.8-.6,3.1.2,4.4.7c1.3.5,2.5,1.2,3.5,2.2l-.5.9Z"/>
    <path class="st5" d="M1095.8,224.7c0-.3,0-.7.2-1,.1-.3.3-.6.5-.8.2-.2.5-.4.8-.5.3-.1.6-.2,1-.2s.7,0,1,.2c.3.1.6.3.8.5.2.2.4.5.5.8s.2.6.2,1,0,.7-.2,1c-.1.3-.3.6-.5.8s-.5.4-.8.5-.6.2-1,.2c-.7,0-1.3-.2-1.8-.7-.5-.5-.7-1.1-.7-1.8Z"/>
  </g>
  <text class="st0" transform="translate(28.3 161.8)"><tspan class="st2" x="0" y="0">dailyprompt</tspan><tspan class="st3" x="945.7" y="0">.io</tspan></text>
  <text class="st1" transform="translate(23 163.7)"><tspan class="st2" x="0" y="0">dailyprompt</tspan><tspan class="st4" x="945.7" y="0">.io</tspan></text>
</svg>